<?xml version="1.0" encoding="UTF-8" standalone="no"?>
<!-- Created with Inkscape (http://www.inkscape.org/) -->

<svg
   xmlns:dc="http://purl.org/dc/elements/1.1/"
   xmlns:cc="http://creativecommons.org/ns#"
   xmlns:rdf="http://www.w3.org/1999/02/22-rdf-syntax-ns#"
   xmlns:svg="http://www.w3.org/2000/svg"
   xmlns="http://www.w3.org/2000/svg"
   xmlns:sodipodi="http://sodipodi.sourceforge.net/DTD/sodipodi-0.dtd"
   xmlns:inkscape="http://www.inkscape.org/namespaces/inkscape"
   width="744.09448819"
   height="1052.3622047"
   id="svg2"
   version="1.1"
   inkscape:version="0.48.2 r9819"
   sodipodi:docname="cw_sign2.svg">
  <defs
     id="defs4" />
  <sodipodi:namedview
     id="base"
     pagecolor="#ffffff"
     bordercolor="#666666"
     borderopacity="1.0"
     inkscape:pageopacity="0.0"
     inkscape:pageshadow="2"
     inkscape:zoom="1.28"
     inkscape:cx="736.35965"
     inkscape:cy="580.8475"
     inkscape:document-units="px"
     inkscape:current-layer="layer1"
     showgrid="false"
     inkscape:window-width="1920"
     inkscape:window-height="1176"
     inkscape:window-x="0"
     inkscape:window-y="24"
     inkscape:window-maximized="1" />
  <metadata
     id="metadata7">
    <rdf:RDF>
      <cc:Work
         rdf:about="">
        <dc:format>image/svg+xml</dc:format>
        <dc:type
           rdf:resource="http://purl.org/dc/dcmitype/StillImage" />
        <dc:title />
      </cc:Work>
    </rdf:RDF>
  </metadata>
  <g
     inkscape:label="Layer 1"
     inkscape:groupmode="layer"
     id="layer1">
    <path
       style="fill:none;stroke:#000000;stroke-width:1px;stroke-linecap:butt;stroke-linejoin:miter;stroke-opacity:1"
       d="m 291.42901,240.19953 -0.0281,-0.31271 -0.17313,-0.83949 -2.7212,-4.19943 -2.08492,-1.4669 -2.8958,-1.25381 -3.83986,-0.89276 -2.51027,-0.0151 -3.15639,0.5265 -3.56054,0.96406 -3.7227,1.29756 -3.64286,1.52704 -3.32104,1.65247 -4.70867,3.2651 -5.78777,5.91851 -2.27326,2.44211 -2.27579,2.5887 -4.15239,5.40583 -1.67323,2.71148 -3.2826,5.97484 -3.01373,5.94073 -2.49153,5.99008 -1.71599,6.12291 -0.68712,6.3392 0.5951,6.63895 2.13065,7.02219 3.91953,7.48888 5.27765,4.30893 2.12019,1.64841 11.03744,3.89165 3.22924,-0.10457 3.61691,-0.54256 3.84776,-0.89769 3.92174,-1.16997 3.83887,-1.35936 3.59917,-1.46591 3.20259,-1.48958 2.64919,-1.43039 2.76731,-1.67948 3.53233,-2.28616 4.1035,-2.88396 4.48082,-3.47289 4.66432,-4.05295 4.65395,-4.62411 4.44975,-5.1864 4.05171,-5.73982 3.61051,-5.82317 3.2317,-5.46212 2.81738,-5.13067 2.36754,-4.82881 1.8822,-4.55654 1.36134,-4.31386 0.80496,-4.10079 0.21308,-3.9173 -0.38793,-3.44626 -0.89252,-2.72119 -1.27428,-2.07604 -1.53323,-1.51079 -1.66937,-1.02545 -1.68268,-0.62 -1.57319,-0.29446 -1.34087,-0.0488 -1.63582,0.33417 -2.40676,0.96601 -2.97793,1.68515 -3.34933,2.49159 -3.52098,3.38534 -3.49287,4.3664 -3.265,5.43475 -2.83735,6.5904 -2.36089,6.80053 -1.94212,6.07694 -1.48342,5.45843 -0.98475,4.94496 -0.44614,4.53657 0.13244,4.23322 0.75095,4.03493 1.40943,3.94172 1.8198,3.88845 1.9663,3.73307 2.12906,3.46969 2.30811,3.09828 2.50344,2.61885 2.71503,2.0314 2.94291,1.33594 3.18706,0.53245 3.87833,-0.17362 4.79872,-0.71816 5.40836,-1.27453 5.70726,-1.84274 5.69543,-2.42279 5.37285,-3.01467 4.73953,-3.6184 3.79547,-4.23396 2.75326,-4.39771 1.824,-4.0781 0.90065,-3.72296 -0.0168,-3.33232 -0.92827,-2.90616 -1.83387,-2.4445 -2.73352,-1.9473 -3.62728,-1.41461 -4.11312,-0.51642 -4.09831,0.59928 -3.93851,1.52855 -3.63369,2.27137 -3.18386,2.82773 -2.58901,3.19767 -1.84915,3.38115 -0.96428,3.37819 -0.26734,3.20654 0.16475,2.96091 0.62641,2.67089 1.11767,2.33647 1.63854,1.95767 2.18899,1.53446 2.76905,1.06688 3.37868,0.55489 3.75281,-0.20815 3.77796,-1.10189 3.66254,-1.85951 3.40655,-2.48099 3.00999,-2.96634 2.47285,-3.31555 1.79514,-3.52863 0.97686,-3.60557 0.30038,-3.34144 -0.12281,-2.83983 -0.51938,-2.35743 -0.88931,-1.89428 -1.2326,-1.45037 -1.54927,-1.02569 -1.83928,-0.62025 -2.10268,-0.23404 -2.06544,0.31049 -1.72066,0.91866 -1.3389,1.36553 -0.92013,1.65112 -0.46439,1.77541 0.0284,1.73842 0.5581,1.54013 1.12483,1.18057 1.86395,0.84146 2.60677,0.61063 3.13354,0.3502 3.44428,0.0602 3.53899,-0.25944 3.41764,-0.60866 3.08028,-0.98746 2.52686,-1.39587 2.03855,-1.69205 1.8166,-1.78232 1.68047,-1.7616 1.63015,-1.62991 1.66567,-1.38723 1.787,-1.03358 1.99416,-0.56895 2.28715,0.007 2.11303,1.01829 1.48564,2.17987 0.96477,3.02331 0.55046,3.5486 0.24267,3.75577 0.0414,3.64478 -0.0533,3.21567 -0.0414,2.46841 0.018,2.04941 0.0313,2.10563 0.0106,2.0642 -0.0442,1.92511 -0.13292,1.68836 -0.25575,1.35394 -0.41259,0.92186 -0.60348,0.39213 -0.57117,-0.96576 -0.30482,-2.75918 -0.0562,-4.06133 0.17461,-4.87221 0.38769,-5.19183 0.583,-5.02018 0.76058,-4.35727 0.92038,-3.20309 1.23384,-2.22081 1.65259,-1.71918 1.98109,-1.18944 2.21933,-0.6316 2.3673,-0.0456 2.42501,0.56846 2.39245,1.21065 2.26964,1.88097 2.1397,3.87969 1.01716,4.22308 0.42757,4.3118 0.37091,4.14582 0.84719,3.72516 1.85639,3.04982 3.39855,2.11978 5.47362,0.93508 4.75926,-0.34231 4.78589,-0.76254 4.63793,-1.21238 4.31534,-1.69181 3.81816,-2.20083 3.14637,-2.73945 2.29997,-3.30766 1.27897,-3.90546 0.40865,-3.86773 -0.14625,-3.18558 -0.62863,-2.51971 -1.03851,-1.87011 -1.37589,-1.2368 -1.64076,-0.61975 -1.83312,-0.019 -1.95298,0.5655 -1.98652,1.15048 -1.92585,1.68466 -1.78083,2.12561 -1.55149,2.47334 -1.23778,2.72786 -0.83974,2.88914 -0.35735,2.95721 0.20938,2.93206 0.62863,2.918 0.89646,2.88248 1.24272,2.70492 1.66739,2.3853 2.17049,1.92363 2.75203,1.31991 3.41197,0.57413 4.15036,-0.3137 4.46702,-0.75194 4.27909,-0.62321 34.82226,-27.41275 14.55801,-31.60076 -1.99071,2.55744 -1.60722,2.6662 -1.42521,2.35102 -1.26245,2.22969 -1.11891,2.30219 -0.99461,2.56854 -0.88956,3.02873 -0.80373,3.68277 -0.73714,4.53064 -0.57857,5.08751 -0.28558,5.14226 0.0518,5.07419 0.43355,4.88331 0.85972,4.56961 1.33026,4.13309 1.8452,3.57376 2.40454,2.89161 2.19146,2.32143 1.3717,1.95002 0.84491,1.58601 0.61113,1.22939 0.67031,0.88018 1.02248,0.53837 1.66764,0.20396 2.60578,-0.12307 2.98459,-1.26935 2.61466,-2.96658 2.2536,-4.25394 1.90144,-5.13141 1.55814,-5.59899 1.22372,-5.65671 0.89819,-5.30453 0.58153,-4.54248 0.43652,-4.35012 0.42763,-4.78663 0.37437,-4.90205 0.27671,-4.69637 0.13465,-4.1696 -0.0518,-3.32171 -0.28263,-2.15274 -0.55785,-0.66267 -0.84294,2.45263 -1.02347,6.20666 -1.07674,8.80209 -1.00275,10.2389 -0.80152,10.51708 -0.47301,9.63665 -0.0173,7.5976 0.56574,4.39993 0.93271,2.34436 1.0363,2.13425 1.1961,1.82054 1.41214,1.40326 1.68441,0.88241 2.01291,0.25796 2.39763,-0.47005 2.83859,-1.30166 2.99642,-2.23832 2.8159,-3.09655 2.60874,-3.78314 2.37494,-4.29808 2.11452,-4.64137 1.82745,-4.81303 1.51375,-4.81302 1.17341,-4.64137 0.82149,-4.36541 0.51815,-4.11237 0.27843,-3.87859 0.10235,-3.66402 -0.0101,-3.4687 -0.059,-3.29262 -0.0441,-3.13576 0.0343,-2.99815 0.0298,-2.78433 -0.0989,-2.46767 -0.22615,-2.1303 -0.35193,-1.77221 -0.47622,-1.3934 -0.59904,-0.99387 -0.72038,-0.57364 -0.84023,-0.13268 -0.54404,0.73591 0.0508,1.8605 0.47105,2.74832 0.71667,3.3994 0.7877,3.81372 0.68413,3.99129 0.40593,3.9321 -0.0469,3.63615 -0.4089,3.68597 -0.51839,4.11509 -0.55983,4.35777 -0.53319,4.41399 -0.43848,4.28377 -0.27572,3.96712 -0.0449,3.46401 0.25402,2.77447 0.54577,2.43093 0.71889,2.47976 0.79288,2.41169 0.76773,2.22672 0.64343,1.92487 0.41999,1.5061 0.0974,0.97045 -0.3243,0.31789 -0.65847,-0.48239 -0.7739,-1.22224 -0.79165,-1.76678 -0.71174,-2.116 -0.53418,-2.26988 -0.25895,-2.22845 0.11394,-1.9917 0.58449,-1.55962 1.34259,-1.76308 2.20083,-2.53993 2.87558,-3.02824 3.36685,-3.228 3.67463,-3.13922 3.79892,-2.76189 3.73974,-2.09601 3.49706,-1.1416 3.27313,-0.18891 2.62995,-0.54897 2.38924,-0.10112 1.9986,0.0498 1.59612,0.18003 1.1818,0.28953 0.75564,0.37831 -1.36725,0.61602 -1.98627,-0.25401 -2.51601,-0.2629 -2.87114,-0.10901 -3.05167,0.20766 -3.05758,0.68708 -2.8889,1.32928 -2.88101,1.62596 -3.02602,1.53274 -2.98458,1.5357 -2.75671,1.63484 -2.34239,1.83016 -1.74163,2.12166 -0.95442,2.50935 0.0192,2.99322 0.67426,3.25883 0.90805,3.16116 1.1744,2.94217 1.4733,2.60184 1.80476,2.14016 2.16877,1.55715 2.56534,0.85281 2.99445,0.0271 3.07287,-0.60323 2.78285,-0.93173 2.49875,-1.22175 2.22056,-1.4733 1.94829,-1.68638 1.68194,-1.86099 1.42152,-1.99713 1.167,-2.09478 1.16059,-2.2033 1.32928,-2.30688 1.39438,-2.3483 1.35592,-2.3276 1.21386,-2.24473 0.96823,-2.09972 0.61901,-1.89255 -0.51737,-2.4045 -0.65401,-2.82348 -6.21814,-2.77779 -6.44899,0.0447 2.37393,0.47773 9.05612,3.74296 0.7065,5.06477 -1.46714,5.47761 -0.91071,3.06284 0.4047,4.2421 0.98771,3.54663 1.71721,2.44128 2.35966,1.62152 2.73846,1.31226 2.99889,0.9305 3.14094,0.47622 3.16462,-0.0506 3.06991,-0.64984 2.85684,-1.32163 2.52538,-2.06593 1.94977,-3.24452 1.36085,-4.50525 0.99979,-5.3102 0.86662,-5.65942 0.96133,-5.55288 1.2839,-4.99059 1.83435,-3.97254 2.61268,-2.49874 2.9979,-1.46516 2.82626,-1.16479 2.63686,-0.84812 2.42969,-0.51519 2.20478,-0.16598 1.9621,0.19952 1.70167,0.58128 1.42349,0.97932 0.93025,1.45382 0.30877,1.91401 -0.20026,2.25435 -0.59681,2.47483 -0.88093,2.57544 -1.05257,2.55621 -1.11176,2.41712 -1.05849,2.15816 -0.85996,2.02894 -0.57438,2.05705 -0.26363,2.00674 0.0723,1.878 0.43331,1.67085 0.81951,1.38526 1.23088,1.02125 1.66739,0.57882 2.18011,0.0567 2.64179,-0.45525 2.93773,-0.91102 3.06794,-1.31053 3.03243,-1.65383 2.83119,-1.9409 2.46422,-2.17172 1.93152,-2.34634 1.63656,-2.70024 1.63065,-3.11011 1.53594,-3.27881 1.35246,-3.20629 1.0802,-2.8926 0.71914,-2.33771 0.26931,-1.54161 -0.26931,-0.50434 -0.13243,0.62641 0.61186,1.54384 1.16528,2.24226 1.5278,2.72169 1.69946,2.98213 1.68022,3.02355 1.47009,2.84599 1.0691,2.44942 0.83949,2.19861 0.83358,2.22672 0.71519,2.23561 0.48436,2.22524 0.14107,2.19565 -0.31469,2.14683 -0.88289,2.07875 -1.56357,1.99145 -10.63817,3.40926 -10.63817,3.40927 -10.63817,3.40926 -10.63817,3.40927 -21.77782,2.65849 -21.77783,2.65849 -21.77782,2.6585 -21.77782,2.65849 -37.33158,-0.69402 -80.66204,-0.50684 -83.96307,-0.0402 -47.23468,0.70575 -19.28711,0.25024 -22.21679,-0.29907 -18.26172,1.09253 -7.42188,4.42505"
       id="path3074"
       inkscape:connector-curvature="0"
       sodipodi:nodetypes="cccccccccccccccccccccccccccccccccccccccccccccccccccccccccccccccccccccccccccccccccccccccccccccccccccccccccccccccccccccccccccccccccccccccccccccccccccccccccccccccccccccccccccccccccccccccccccccccccccccccccccccccccccccccccccccccccccccccccccccccccccccccccccccccccccccccccccccccccccccccccccccccccccccccccccccccccccccccccccccccccccccccccccccccccccccccccccccccccccccccccccccccccccccccccccccccccccccccccccccccccccccccccccccccccccccccccccccccccccccccccccccccccccccccccccccccccccccccccccccccccccccccccccccccccccc" />
  </g>
</svg>
